Patient4_TMGait_0pt4_02_left_37_GRF.mot
version=1
nRows=52
nColumns=19
inDegrees=no
endheader
time	F1x	F1y	F1z	M1x	M1y	M1z	F2x	F2y	F2z	M2x	M2y	M2z	EC1x	EC1y	EC1z	EC2x	EC2y	EC2z
49.45	7.3726	5.1116	-2.8897	-0.95308	1.4352	2.1865	-28.8195	739.5565	-67.8597	288.8423	83.3179	798.4671	-0.0592	0.0182	-0.0073	-0.0462	0.0165	0.9585
49.4633	4.9346	4.0111	-1.8612	-0.83845	0.85383	2.1542	-26.2252	741.9988	-66.0244	289.4335	80.1617	798.2459	-0.0592	0.0182	-0.0073	-0.0462	0.0165	0.9585
49.4766	2.881	3.1004	-1.0063	-0.74722	0.3896	2.1494	-23.8123	745.3028	-64.3296	290.395	77.1255	798.6552	-0.0592	0.0182	-0.0073	-0.0462	0.0165	0.9585
49.4899	1.3171	2.4388	-0.36624	-0.68597	0.053481	2.1858	-21.6905	749.5579	-62.9013	291.7716	74.3955	799.8838	-0.0592	0.0182	-0.0073	-0.0462	0.0165	0.9585
49.5031	0.22911	2.0166	0.071056	-0.65225	-0.17209	2.2538	-19.8533	754.695	-61.8057	293.5279	72.055	801.9069	-0.0592	0.0182	-0.0073	-0.0462	0.0165	0.9585
49.5164	-0.45876	1.7856	0.34404	-0.63756	-0.31827	2.3253	-18.2314	760.4157	-61.0414	295.5337	70.0946	804.4328	-0.0592	0.0182	-0.0073	-0.0462	0.0165	0.9585
49.5297	-0.84917	1.6621	0.50099	-0.62502	-0.419	2.3569	-16.7313	766.1988	-60.5649	297.5725	68.4544	806.933	-0.0592	0.0182	-0.0073	-0.0462	0.0165	0.9585
49.543	-1.0356	1.5422	0.58124	-0.59208	-0.49428	2.2803	-15.2717	771.3612	-60.293	299.3685	67.0375	808.7167	-0.0592	0.0182	-0.0073	-0.0462	0.0165	0.9585
49.5563	-1.1091	1.3213	0.62493	-0.51498	-0.56798	2.009	-13.7854	775.1503	-60.1317	300.6265	65.7381	809.021	-0.0592	0.0182	-0.0073	-0.0462	0.0165	0.9585
49.5696	-1.1281	0.88623	0.64938	-0.36525	-0.64431	1.441	-12.2154	776.8861	-59.9816	301.0857	64.4509	807.1693	-0.0592	0.0182	-0.0073	-0.0462	0.0165	0.9585
49.5829	-1.1322	0.13865	0.6703	-0.11211	-0.72841	0.48643	-10.5024	776.0843	-59.7582	300.5668	63.0853	802.6918	-0.0592	0.0182	-0.0073	-0.0462	0.0165	0.9585
49.5961	-1.1349	-0.97763	0.68118	0.26569	-0.8044	-0.91283	-8.5882	772.561	-59.391	299.0071	61.5606	795.4263	-0.0592	0.0182	-0.0073	-0.0462	0.0165	0.9585
49.6094	-1.1262	-2.4807	0.68242	0.77499	-0.85886	-2.7655	-6.4258	766.4375	-58.8617	296.4581	59.8412	785.5241	-0.0592	0.0182	-0.0073	-0.0462	0.0165	0.9585
49.6227	-1.07	-4.296	0.65778	1.3891	-0.85755	-4.966	-3.9822	758.1147	-58.2218	293.0723	57.9565	773.4215	-0.0592	0.0182	-0.0073	-0.0462	0.0165	0.9585
49.636	-0.8954	-6.1956	0.58823	2.0277	-0.75197	-7.2331	-1.2492	748.2654	-57.5754	289.1023	55.9958	759.8275	-0.0592	0.0182	-0.0073	-0.0462	0.0165	0.9585
49.6493	-0.50642	-7.7248	0.44014	2.5366	-0.47248	-9.0325	1.7458	737.7881	-57.0385	284.8868	54.0756	745.6778	-0.0592	0.0182	-0.0073	-0.0462	0.0165	0.9585
49.6626	0.2101	-8.1412	0.16981	2.6691	0.064761	-9.5015	4.949	727.6792	-56.7119	280.8014	52.3082	732.007	-0.0592	0.0182	-0.0073	-0.0462	0.0165	0.9585
49.6759	1.3677	-6.356	-0.26182	2.0656	0.94244	-7.3735	8.2823	718.8351	-56.6638	277.184	50.7854	719.7551	-0.0592	0.0182	-0.0073	-0.0462	0.0165	0.9585
49.6891	3.0553	-0.93163	-0.88869	0.25207	2.2276	-0.97229	11.6337	711.8322	-56.9116	274.2525	49.5658	709.5494	-0.0592	0.0182	-0.0073	-0.0462	0.0165	0.9585
49.7024	5.2946	9.8418	-1.7195	-3.3358	3.9312	11.7013	14.8635	706.7578	-57.4246	272.0391	48.6751	701.5378	-0.0592	0.0182	-0.0073	-0.0462	0.0165	0.9585
49.7157	7.9724	27.744	-2.7184	-9.2844	5.9677	32.7271	17.8137	703.0817	-58.1071	270.3393	48.0845	695.2615	-0.0592	0.0182	-0.0073	-0.0462	0.0165	0.9585
49.729	10.7616	54.2087	-3.7676	-18.0641	8.087	63.7753	20.3021	699.6333	-58.7974	268.7082	47.7072	689.6331	-0.0592	0.0182	-0.0073	-0.0462	0.0165	0.9585
49.7423	13.0325	89.6607	-4.6328	-29.8093	9.7976	105.3478	22.1682	694.7446	-59.2642	266.5143	47.3842	683.067	-0.0592	0.0182	-0.0073	-0.0462	0.0165	0.9585
49.7556	13.7517	132.5317	-4.9299	-43.9862	10.3019	155.6122	23.2984	686.4929	-59.2418	263.0344	46.9072	673.7117	-0.0592	0.0182	-0.0073	-0.0462	0.0165	0.9585
49.7689	11.7954	178.359	-4.1036	-59.088	8.5876	209.3561	23.6349	673.0826	-58.4665	257.6029	46.0452	659.8025	-0.0592	0.0182	-0.0073	-0.0462	0.0165	0.9585
49.7821	7.449	220.5387	-1.4786	-72.8837	4.0126	258.8494	23.2341	653.3999	-56.7771	249.8168	44.6269	640.1842	-0.0592	0.0182	-0.0073	-0.0462	0.0165	0.9585
49.7954	2.2131	254.2444	2.7539	-83.7862	-2.6455	298.2747	22.2931	627.4916	-54.2064	239.7082	42.616	614.7802	-0.0592	0.0182	-0.0073	-0.0462	0.0165	0.9585
49.8087	-2.8117	279.6053	7.8464	-91.8658	-10.1714	327.5956	21.1048	596.4855	-51.0552	227.7057	40.1853	584.5474	-0.0592	0.0182	-0.0073	-0.0462	0.0165	0.9585
49.822	-7.0907	299.5752	13.2093	-98.145	-17.6973	350.235	20.0026	562.0121	-47.7311	214.4235	37.5821	550.9456	-0.0592	0.0182	-0.0073	-0.0462	0.0165	0.9585
49.8353	-10.4704	317.6247	18.2996	-103.8239	-24.5666	370.2808	19.2461	525.748	-44.4922	200.4932	34.9399	515.5263	-0.0592	0.0182	-0.0073	-0.0462	0.0165	0.9585
49.8486	-13.0578	336.483	22.8213	-109.8436	-30.483	390.9669	18.9916	489.0858	-41.3628	186.4466	32.2189	479.6097	-0.0592	0.0182	-0.0073	-0.0462	0.0165	0.9585
49.8619	-14.9646	357.508	26.5307	-116.6841	-35.2326	413.8896	19.2711	453.017	-38.2317	172.6663	29.298	444.1689	-0.0592	0.0182	-0.0073	-0.0462	0.0165	0.9585
49.8751	-16.3157	381.0424	29.3876	-124.4644	-38.8224	439.473	19.9983	418.1315	-34.9908	159.3736	26.0976	409.8101	-0.0592	0.0182	-0.0073	-0.0462	0.0165	0.9585
49.8884	-17.2126	406.9294	31.5012	-133.1052	-41.4195	467.5721	20.9954	384.6037	-31.6293	146.6223	22.6586	376.7437	-0.0592	0.0182	-0.0073	-0.0462	0.0165	0.9585
49.9017	-17.695	434.6987	33.1457	-142.4075	-43.3457	497.6714	21.9965	352.2383	-28.2275	134.3203	19.1378	344.827	-0.0592	0.0182	-0.0073	-0.0462	0.0165	0.9585
49.915	-17.9201	463.6889	34.6799	-152.1012	-45.0382	529.0405	22.7078	320.6016	-24.9136	122.2836	15.762	313.6762	-0.0592	0.0182	-0.0073	-0.0462	0.0165	0.9585
49.9283	-18.1234	493.3052	36.4564	-161.9423	-46.9467	560.9841	22.8201	289.1949	-21.8055	110.3069	12.7645	282.8357	-0.0592	0.0182	-0.0073	-0.0462	0.0165	0.9585
49.9416	-18.5168	523.4602	38.7484	-171.8566	-49.4283	593.402	22.0662	257.6009	-18.9826	98.2278	10.3345	251.9122	-0.0592	0.0182	-0.0073	-0.0462	0.0165	0.9585
49.9549	-19.1399	554.5602	41.6024	-181.9503	-52.5549	626.7081	20.2983	225.702	-16.462	86.0071	8.5584	220.785	-0.0592	0.0182	-0.0073	-0.0462	0.0165	0.9585
49.9681	-19.9889	587.1041	44.9818	-192.3651	-56.2893	661.433	17.5305	193.7985	-14.2144	73.77	7.4163	189.7227	-0.0592	0.0182	-0.0073	-0.0462	0.0165	0.9585
49.9814	-21.0695	621.1564	48.7844	-203.1033	-60.5266	697.6317	13.9711	162.5179	-12.174	61.7739	6.7749	159.2964	-0.0592	0.0182	-0.0073	-0.0462	0.0165	0.9585
49.9947	-22.3661	656.1836	52.9882	-213.9633	-65.236	734.7294	9.9789	132.6739	-10.2893	50.3414	6.4497	130.2662	-0.0592	0.0182	-0.0073	-0.0462	0.0165	0.9585
50.008	-23.858	691.1108	57.4991	-224.5703	-70.3107	771.5672	5.9895	105.0692	-8.524	39.7845	6.24	103.3828	-0.0592	0.0182	-0.0073	-0.0462	0.0165	0.9585
50.0213	-25.4618	724.477	62.2356	-234.4308	-75.6322	806.5527	2.3798	80.3168	-6.8719	30.3411	5.9923	79.2346	-0.0592	0.0182	-0.0073	-0.0462	0.0165	0.9585
50.0346	-27.0454	754.6953	66.9625	-243.0295	-80.9058	837.9502	-0.56264	58.8097	-5.3371	22.1615	5.6002	58.2114	-0.0592	0.0182	-0.0073	-0.0462	0.0165	0.9585
50.0479	-28.4397	780.273	71.4656	-249.8977	-85.8396	864.1335	-2.644	40.758	-3.9483	15.3197	5.0214	40.5321	-0.0592	0.0182	-0.0073	-0.0462	0.0165	0.9585
50.0611	-29.4975	799.9729	75.472	-254.6738	-90.0918	883.7569	-3.8018	26.2227	-2.7302	9.8296	4.2562	26.2764	-0.0592	0.0182	-0.0073	-0.0462	0.0165	0.9585
50.0744	-30.1118	812.9528	78.8344	-257.1345	-93.4656	895.9178	-4.0795	15.1288	-1.7179	5.6547	3.3578	15.3743	-0.0592	0.0182	-0.0073	-0.0462	0.0165	0.9585
50.0877	-30.2327	818.8382	81.4161	-257.2232	-95.8014	900.2277	-3.7207	7.313	-0.93906	2.722	2.4471	7.669	-0.0592	0.0182	-0.0073	-0.0462	0.0165	0.9585
50.101	-29.8838	817.788	83.2164	-255.0592	-97.1044	896.9102	-3.0689	2.364	-0.39849	0.87002	1.6544	2.7702	-0.0592	0.0182	-0.0073	-0.0462	0.0165	0.9585
50.1143	-29.0847	810.5384	84.2223	-250.9553	-97.3842	886.7848	-2.3483	-0.35248	-0.065846	-0.14099	1.037	0.063778	-0.0592	0.0182	-0.0073	-0.0462	0.0165	0.9585
50.1276	-27.8575	798.3567	84.5114	-245.3908	-96.7477	871.2367	-1.6959	-1.4814	0.10829	-0.55555	0.60222	-1.0726	-0.0592	0.0182	-0.0073	-0.0462	0.0165	0.9585
